inDegrees=yes
name=ik_S49_A06_T02
DataType=double
version=3
OpenSimVersion=4.3-2021-08-27-4bc7ad9
endheader
time	pelvis_tilt	pelvis_list	pelvis_rotation	pelvis_tx	pelvis_ty	pelvis_tz	hip_flexion_r	hip_adduction_r	hip_rotation_r	knee_angle_r	knee_angle_r_beta	ankle_angle_r	subtalar_angle_r	mtp_angle_r	hip_flexion_l	hip_adduction_l	hip_rotation_l	knee_angle_l	knee_angle_l_beta	ankle_angle_l	subtalar_angle_l	mtp_angle_l	lumbar_extension	lumbar_bending	lumbar_rotation	arm_flex_r	arm_add_r	arm_rot_r	elbow_flex_r	pro_sup_r	wrist_flex_r	wrist_dev_r	arm_flex_l	arm_add_l	arm_rot_l	elbow_flex_l	pro_sup_l	wrist_flex_l	wrist_dev_l
15.09999999999977	-12.2156622599098	-1.654825966024165	17.28914400585	0	0.9399999999999999	0	43.30214257444802	-10.56176273581571	-10.50088804909812	53.79460728640657	0.9388930169651269	0	0	0	43.30214257444802	-10.56176273581571	-10.50088804909812	53.79460728640657	0.9388930169651269	0	0	0	-11.37670618375184	1.775203257207341	0.8828519968995507	43.09911051762209	2.420307150831779	7.241356120594181	39.00400247910726	122.269407702071	0	0	84.67952766674277	3.375610636107194	8.191188921331587	21.21950468986548	104.8436859960829	0	0
15.11999999999977	-12.10773003355801	-1.692703513480426	17.30041789058801	0	0.9399999999999999	0	43.30268373293308	-10.56114478029034	-10.50053324778334	53.79486733081165	0.9388975555961969	0	0	0	43.30268373293308	-10.56114478029034	-10.50053324778334	53.79486733081165	0.9388975555961969	0	0	0	-11.28841063508853	1.733156004289399	0.7518803805898884	42.87810531089264	2.536221902590889	7.236472884634176	39.02721596118914	122.2299513768605	0	0	84.41059169781525	2.860807048335841	8.229463913198625	21.84840161280957	104.9080384335174	0	0
15.13999999999977	-12.11731218320046	-1.685880831258418	17.36808627581208	0	0.9399999999999999	0	43.30322901191469	-10.56051606895435	-10.50017340888578	53.79512683945468	0.9389020848764552	0	0	0	43.30322901191469	-10.56051606895435	-10.50017340888578	53.79512683945468	0.9389020848764552	0	0	0	-11.29755070910245	1.755869138778919	0.6887136055198126	42.90008568981276	2.508330009583472	7.24569873971471	39.00260018689363	122.2280387198292	0	0	84.36225348301426	2.393858324534391	8.009287825641955	22.60125316840033	104.757847504602	0	0
15.15999999999977	-12.00099461152845	-1.710939659040834	17.50322373939106	0	0.9399999999999999	0	43.30384771695875	-10.55980153217683	-10.49976461763166	53.79542064046958	0.9389072126715109	0	0	0	43.30384771695875	-10.55980153217683	-10.49976461763166	53.79542064046958	0.9389072126715109	0	0	0	-11.19511185539725	1.704636930367548	0.6495506579815106	42.64807902303352	2.412948379731407	7.28178100547131	39.02221001309937	121.997034139464	0	0	84.09731953203459	1.860740714502165	7.886074308543376	23.44887267116698	104.26135737924	0	0
15.17999999999977	-11.93023637772538	-1.72941853530726	17.678755639192	0	0.9399999999999999	0	43.30466204709642	-10.55886057733875	-10.49922628853964	53.79580679941772	0.9389139524165919	0	0	0	43.30466204709642	-10.55886057733875	-10.49922628853964	53.79580679941772	0.9389139524165919	0	0	0	-11.13400807606143	1.66984284500988	0.6258692621655324	42.53862581621837	2.328652458032971	7.295567584747946	38.98611001221703	121.8464868864937	0	0	83.95328321226999	1.234756566383721	7.654042782405238	24.34599669127098	103.760096190342	0	0
15.19999999999976	-11.85385895372361	-1.746089202170134	17.79865166459612	0	0.9399999999999999	0	43.30537405227974	-10.55804095892481	-10.49875668356253	53.79614530697384	0.9389198604879891	0	0	0	43.30537405227974	-10.55804095892481	-10.49875668356253	53.79614530697384	0.9389198604879891	0	0	0	-11.06537415699546	1.624054691360312	0.6559691463832749	42.42793622537638	2.239851705751376	7.254334601162352	38.99482944796185	121.6882106188659	0	0	83.85951933506435	1.249879870204377	7.732110664264489	24.9551513070628	103.3570518356099	0	0
15.21999999999976	-11.72018575679071	-1.765050726084682	18.1650775527652	0	0.9399999999999999	0	43.30605625656159	-10.55725492926938	-10.49830639256146	53.79646911945174	0.9389255120818876	0	0	0	43.30605625656159	-10.55725492926938	-10.49830639256146	53.79646911945174	0.9389255120818876	0	0	0	-10.9463579618017	1.581960851583373	0.5672885995933832	42.21968094956931	2.121875920590953	7.099559435231297	38.93895523119801	121.5831937334792	0	0	83.67258021672419	-0.4345876463323923	7.165312442288743	26.15470439872159	103.1368222785494	0	0
